<svg xmlns:xlink="http://www.w3.org/1999/xlink"  xmlns="http://www.w3.org/2000/svg" width="18" height="18" fill="none"><path fill="#000" d="M17.438 14.625a.562.562 0 0 1-.563.563H1.125a.563.563 0 0 1 0-1.126h15.75a.562.562 0 0 1 .563.563ZM1.145 6.903a.563.563 0 0 1 .247-.633l7.312-4.5a.563.563 0 0 1 .59 0l7.312 4.5a.563.563 0 0 1-.294 1.042h-1.688v4.5h1.125a.562.562 0 1 1 0 1.126H2.25a.563.563 0 0 1 0-1.126h1.125v-4.5H1.687a.562.562 0 0 1-.54-.409Zm8.979 4.347a.562.562 0 0 0 1.125 0V7.875a.562.562 0 0 0-1.125 0v3.375Zm-3.375 0a.562.562 0 1 0 1.125 0V7.875a.562.562 0 1 0-1.125 0v3.375Z"/></svg>