<svg xmlns:xlink="http://www.w3.org/1999/xlink"  xmlns="http://www.w3.org/2000/svg" width="18" height="18" fill="none"><g clip-path="url(#a)"><path fill="#000" d="M15.89 6.193a6.182 6.182 0 0 0-2.21-2.813h1.507a.562.562 0 1 0 0-1.124H7.875A6.196 6.196 0 0 0 1.707 7.95 2.25 2.25 0 0 0 0 10.125a.562.562 0 1 0 1.125 0 1.125 1.125 0 0 1 .603-.996 6.166 6.166 0 0 0 1.506 3.402l.883 2.472a1.125 1.125 0 0 0 1.06.747h.895a1.125 1.125 0 0 0 1.06-.747l.135-.378h4.029l.135.378a1.126 1.126 0 0 0 1.06.747h.894a1.125 1.125 0 0 0 1.06-.747l1.14-3.19h.165a1.687 1.687 0 0 0 1.688-1.688v-2.25a1.687 1.687 0 0 0-1.547-1.682Zm-5.203-1.13H7.876a.563.563 0 1 1 0-1.126h2.813a.562.562 0 1 1 0 1.125ZM12.658 9a.844.844 0 1 1 0-1.687.844.844 0 0 1 0 1.687Z"/></g><defs><clipPath id="a"><path fill="#fff" d="M0 0h18v18H0z"/></clipPath></defs></svg>