<svg xmlns:xlink="http://www.w3.org/1999/xlink"  xmlns="http://www.w3.org/2000/svg" width="18" height="18" fill="none"><path fill="#000" d="M15.75 5a.562.562 0 0 1-.758-.241 6.618 6.618 0 0 0-2.353-2.596.562.562 0 1 1 .6-.952 7.837 7.837 0 0 1 2.752 3.03.563.563 0 0 1-.241.758Zm-13.24.062a.563.563 0 0 0 .5-.303 6.618 6.618 0 0 1 2.353-2.596.563.563 0 0 0-.6-.952 7.837 7.837 0 0 0-2.751 3.03.562.562 0 0 0 .499.821Zm13.086 7.309a1.125 1.125 0 0 1-.971 1.691h-2.869a2.812 2.812 0 0 1-5.512 0H3.375a1.125 1.125 0 0 1-.97-1.691c.634-1.094.97-2.648.97-4.496a5.625 5.625 0 0 1 11.25 0c0 1.847.336 3.402.971 4.496Zm-5.005 1.691H7.41a1.688 1.688 0 0 0 3.18 0Z"/></svg>