<svg xmlns:xlink="http://www.w3.org/1999/xlink"  xmlns="http://www.w3.org/2000/svg" width="18" height="18" fill="none"><path fill="#000" d="M8.888 1.687c-3.915.06-7.115 3.24-7.2 7.155a7.276 7.276 0 0 0 .95 3.761.281.281 0 0 0 .499-.02A8.388 8.388 0 0 0 3.937 9c0-1.224.443-2.406 1.248-3.328a.578.578 0 0 1 .76-.112.562.562 0 0 1 .102.838A3.932 3.932 0 0 0 5.063 9a9.5 9.5 0 0 1-1.297 4.803.282.282 0 0 0 .043.341c.279.283.58.543.902.777a.28.28 0 0 0 .41-.085c.3-.495.564-1.012.785-1.547a.562.562 0 1 1 1.04.429 12.44 12.44 0 0 1-.832 1.655.281.281 0 0 0 .133.404c.563.23 1.154.388 1.757.47a.281.281 0 0 0 .287-.14 14.546 14.546 0 0 0 1.797-6.02.563.563 0 1 1 1.122.082 15.667 15.667 0 0 1-1.517 5.678.281.281 0 0 0 .286.404 7.299 7.299 0 0 0 1.449-.348.281.281 0 0 0 .165-.157 17.387 17.387 0 0 0 1.345-6.622c.015-2.155-1.646-3.985-3.797-4.06a3.988 3.988 0 0 0-1.125.122.562.562 0 0 1-.692-.436.579.579 0 0 1 .442-.66A5.066 5.066 0 0 1 14.062 9a18.62 18.62 0 0 1-.749 5.247.28.28 0 0 0 .455.292 7.312 7.312 0 0 0-4.88-12.852ZM9 6.75a2.253 2.253 0 0 1 1.677.75.564.564 0 0 1-.087.83.58.58 0 0 1-.765-.095 1.125 1.125 0 0 0-1.18-.302 1.152 1.152 0 0 0-.773 1.101 12.438 12.438 0 0 1-.225 2.32.563.563 0 0 1-.65.449.583.583 0 0 1-.445-.68c.133-.7.2-1.41.198-2.123A2.25 2.25 0 0 1 9 6.75Z"/></svg>