<svg xmlns:xlink="http://www.w3.org/1999/xlink"  xmlns="http://www.w3.org/2000/svg" width="33" height="32" fill="none"><g clip-path="url(#a)"><path fill="#8C2891" d="M24.333 14.5a1.5 1.5 0 1 1-3 0 1.5 1.5 0 0 1 3 0Zm-5-6.5h-5a1 1 0 1 0 0 2h5a1 1 0 1 0 0-2Zm12 6v4a3 3 0 0 1-3 3h-.295l-2.026 5.672A2 2 0 0 1 24.128 28h-1.59a2 2 0 0 1-1.884-1.328l-.24-.672h-7.162l-.24.672A2 2 0 0 1 11.128 28h-1.59a2 2 0 0 1-1.883-1.328l-1.572-4.395a10.961 10.961 0 0 1-2.68-6.047A2 2 0 0 0 2.333 18a1 1 0 1 1-2 0 4 4 0 0 1 3.035-3.875A11.015 11.015 0 0 1 14.333 4h13a1 1 0 1 1 0 2H24.66a10.991 10.991 0 0 1 3.927 5 3 3 0 0 1 2.746 3Zm-2 0a1 1 0 0 0-1-1h-.457a1 1 0 0 1-.955-.7A8.988 8.988 0 0 0 18.333 6h-4a9 9 0 0 0-6.636 15.08 1 1 0 0 1 .205.339L9.538 26h1.59l.478-1.336a1 1 0 0 1 .941-.664h8.572a1 1 0 0 1 .942.664L22.538 26h1.59l2.264-6.336a1 1 0 0 1 .941-.664h1a1 1 0 0 0 1-1v-4Z"/></g><defs><clipPath id="a"><path fill="#fff" d="M.333 0h32v32h-32z"/></clipPath></defs></svg>