<svg xmlns="http://www.w3.org/2000/svg"  xmlns:xlink="http://www.w3.org/1999/xlink"  width="28" height="31" viewBox="0 0 28 31" fill="none" id="svg409765907_675">
<path fill-rule="evenodd" clip-rule="evenodd" d="M0 11.625V24.025H3.88889C4.29743 24.025 4.70199 24.1052 5.07948 24.261C5.45688 24.4168 5.79991 24.6451 6.08873 24.933C6.37765 25.2208 6.60684 25.5626 6.76321 25.9387C6.91948 26.3148 7 26.7179 7 27.125V31H16.3333L28 19.375V6.975H24.1111C23.7025 6.975 23.298 6.89483 22.9205 6.73904C22.5431 6.58324 22.2001 6.35489 21.9112 6.06703C21.6224 5.77917 21.3932 5.43741 21.2368 5.06132C21.0805 4.68522 21 4.28211 21 3.875V0H11.6667L0 11.625ZM13.2222 23.25H7.77778V14.725L14.7778 7.75H20.2222V16.275L13.2222 23.25Z" fill="#FBA7FF"></path>
</svg>