<svg xmlns="http://www.w3.org/2000/svg"  xmlns:xlink="http://www.w3.org/1999/xlink"  width="89" height="24" fill="none" id="svg1928421845_3202"><g clip-path="url(#svg1928421845_3202_a)"><g clip-path="url(#svg1928421845_3202_b)"><g clip-path="url(#svg1928421845_3202_c)"><path d="M12.886 16.427H.293v3.464h12.593v-3.464Z" fill="#000" fill-opacity=".4"></path></g><g clip-path="url(#svg1928421845_3202_d)" fill="#000" fill-opacity=".4"><path d="M60.943.05a2.316 2.316 0 0 0-1.68.643 2.217 2.217 0 0 0-.66 1.657 2.239 2.239 0 0 0 .661 1.67 2.259 2.259 0 0 0 1.68.656 2.231 2.231 0 0 0 1.665-.657 2.276 2.276 0 0 0 .643-1.67 2.186 2.186 0 0 0-.644-1.654 2.21 2.21 0 0 0-1.662-.642L60.943.05Z"></path><path fill-rule="evenodd" clip-rule="evenodd" d="M71.493 5.362c1.46-.002 2.67.281 3.628.849a5.38 5.38 0 0 1 2.155 2.343 7.82 7.82 0 0 1 .718 3.43v.88c0 .27-.02.603-.06 1.001h-9.69c.11.851.36 1.508.757 1.968.548.636 1.381.955 2.498.955.94 0 1.61-.2 2.01-.597a3.26 3.26 0 0 0 .832-1.433l3.538.986a7.076 7.076 0 0 1-1.123 2.311 5.224 5.224 0 0 1-2.07 1.627c-.87.397-1.954.596-3.251.596-1.5-.001-2.795-.315-3.883-.94a6.359 6.359 0 0 1-2.518-2.641 8.548 8.548 0 0 1-.885-3.996c0-2.288.65-4.084 1.948-5.386 1.3-1.302 3.098-1.953 5.396-1.953Zm2.714 5.816c-.223-1.63-1.167-2.446-2.832-2.446-1.06-.001-1.859.316-2.399.953a3.36 3.36 0 0 0-.66 1.493h5.891ZM35.822 5.42c-1.459 0-2.647.219-3.566.656a4.673 4.673 0 0 0-2.07 1.805 6.547 6.547 0 0 0-.867 2.61l3.836.536c.14-.813.417-1.39.833-1.73a2.55 2.55 0 0 1 1.649-.507c.778 0 1.343.207 1.694.621.348.415.525.988.525 1.745v.377h-3.69c-1.877 0-3.226.414-4.046 1.242-.82.829-1.23 1.923-1.228 3.282 0 1.392.41 2.427 1.228 3.107.819.68 1.849 1.017 3.09 1.013 1.538 0 2.722-.527 3.55-1.58a5.857 5.857 0 0 0 1.027-2.178h.14l.528 3.46h3.477v-8.76c0-1.811-.48-3.214-1.439-4.208-.959-.994-2.516-1.491-4.671-1.491Zm1.216 10.798c-.552.458-1.274.686-2.174.686-.74 0-1.256-.13-1.544-.388a1.267 1.267 0 0 1-.435-.983 1.285 1.285 0 0 1 .36-.955 1.338 1.338 0 0 1 .989-.359h3.628v.238a2.194 2.194 0 0 1-.824 1.761Z"></path><path d="m20.064 16.427-.013-.04 7.881-7.179V5.75H15.288v3.46h7.552l.013.032-7.804 7.186v3.46h13.01v-3.46h-7.995ZM58.845 5.749h4.107v14.14h-4.107V5.749Zm28.356 0c-1.16 0-2.075.407-2.743 1.222-.48.586-.845 1.45-1.095 2.596h-.12l-.538-3.818h-3.508v14.138h4.108v-7.25c0-.915.215-1.616.645-2.103.43-.488 1.224-.731 2.381-.731h1.56V5.749h-.69Z"></path><path fill-rule="evenodd" clip-rule="evenodd" d="M49.086 6.673c.85-.874 1.974-1.311 3.373-1.311 1.718 0 3.012.652 3.882 1.955.87 1.304 1.305 3.108 1.305 5.413 0 2.386-.45 4.246-1.349 5.578-.9 1.333-2.208 2-3.928 2a4.818 4.818 0 0 1-2.427-.583 4.125 4.125 0 0 1-1.635-1.819 7.61 7.61 0 0 1-.524-1.45h-.15v7.495h-4.107V5.755h3.508l.537 3.818h.131c.294-1.286.756-2.252 1.384-2.9Zm1.54 9.97c1.02 0 1.77-.345 2.249-1.036h.004c.48-.686.719-1.636.716-2.85 0-1.174-.235-2.089-.706-2.745-.47-.656-1.224-.984-2.263-.984-.937-.007-1.672.301-2.202.924s-.795 1.52-.795 2.693v.27c-.001 1.154.264 2.063.795 2.727a2.662 2.662 0 0 0 2.202 1Z"></path></g></g></g><defs><clipPath id="svg1928421845_3202_a"><path fill="#fff" d="M0 0h88.36v24H0z"></path></clipPath><clipPath id="svg1928421845_3202_b"><path fill="#fff" d="M0 0h88.36v24H0z"></path></clipPath><clipPath id="svg1928421845_3202_c"><path fill="#fff" transform="translate(0 16)" d="M0 0h13.36v4H0z"></path></clipPath><clipPath id="svg1928421845_3202_d"><path fill="#fff" transform="translate(15)" d="M0 0h73.36v24H0z"></path></clipPath></defs></svg>