<svg xmlns="http://www.w3.org/2000/svg"  xmlns:xlink="http://www.w3.org/1999/xlink"  width="107" height="24" fill="none" id="svg886457906_1777"><g clip-path="url(#svg886457906_1777_a)"><g clip-path="url(#svg886457906_1777_b)"><g clip-path="url(#svg886457906_1777_c)"><g clip-path="url(#svg886457906_1777_d)"><path d="M54.06 6C49.956 6 47 8.7 47 12.75s3.329 6.75 7.43 6.75c2.48 0 4.664-.99 6.017-2.659l-2.843-1.657c-.75.829-1.891 1.312-3.173 1.312-1.78 0-3.292-.937-3.853-2.437h10.411c.082-.42.13-.855.13-1.313C61.12 8.7 58.161 6 54.06 6Zm-3.516 5.438C51.01 9.94 52.28 9 54.056 9c1.78 0 3.05.941 3.51 2.438h-7.022ZM94.07 6c-4.103 0-7.06 2.7-7.06 6.75s3.329 6.75 7.431 6.75c2.478 0 4.663-.99 6.016-2.659l-2.843-1.657c-.75.829-1.891 1.312-3.173 1.312-1.78 0-3.292-.937-3.853-2.437H101c.081-.42.129-.855.129-1.313C101.129 8.7 98.172 6 94.069 6Zm-3.512 5.438C91.023 9.94 92.293 9 94.07 9c1.78 0 3.051.941 3.512 2.438h-7.023ZM76.056 12.75c0 2.25 1.457 3.75 3.716 3.75 1.53 0 2.679-.701 3.27-1.845l2.853 1.661C84.714 18.304 82.5 19.5 79.772 19.5c-4.106 0-7.06-2.7-7.06-6.75S75.67 6 79.772 6c2.727 0 4.938 1.196 6.123 3.184l-2.853 1.661C82.45 9.701 81.302 9 79.772 9c-2.256 0-3.716 1.5-3.716 3.75Zm30.647-10.875v17.25h-3.344V1.875h3.344ZM15.383 0l13.73 24H1.652l13.73-24Zm34.325 1.875-10.296 18-10.296-18h3.86l6.436 11.25 6.436-11.25h3.86Zm21.89 4.5v3.634a4.201 4.201 0 0 0-1.19-.184c-2.159 0-3.715 1.5-3.715 3.75v5.55h-3.344V6.375h3.344v3.45c0-1.905 2.196-3.45 4.904-3.45Z" fill="#000" fill-opacity=".4"></path></g></g></g></g><defs><clipPath id="svg886457906_1777_a"><path fill="#fff" transform="translate(.78)" d="M0 0h106.02v24H0z"></path></clipPath><clipPath id="svg886457906_1777_b"><path fill="#fff" transform="translate(.78)" d="M0 0h106.02v24H0z"></path></clipPath><clipPath id="svg886457906_1777_c"><path fill="#fff" transform="translate(.78)" d="M0 0h106.02v24H0z"></path></clipPath><clipPath id="svg886457906_1777_d"><path fill="#fff" transform="translate(.78)" d="M0 0h106.02v24H0z"></path></clipPath></defs></svg>