<svg xmlns="http://www.w3.org/2000/svg"  xmlns:xlink="http://www.w3.org/1999/xlink"  width="92" height="24" fill="none" id="svg-1279429374_3244"><g clip-path="url(#svg-1279429374_3244_a)"><g clip-path="url(#svg-1279429374_3244_b)"><g clip-path="url(#svg-1279429374_3244_c)" fill="#000" fill-opacity=".4"><path d="M83.42 0c.18.092.271.275.452.367l2.604 2.639c-.09 2.638-.974 5.07-2.242 7.342a17.211 17.211 0 0 1-9.759 7.801c-1.154.367-2.422.643-3.577.643l-2.604-2.639c-.181-.184-.362-.275-.453-.55 3.759-.276 7.427-1.905 10.099-4.544 1.88-1.812 3.487-4.084 4.392-6.516.634-1.354.997-2.914 1.087-4.543ZM4.51 5.897c.543-.55 1.245-.987 2.06-.987.724-.092 1.517 0 2.15.459-.452.918-.905 1.904-1.335 2.8-.906-.368-1.97-.368-2.763.183-.543.367-.973.918-1.245 1.537-.272.734-.453 1.537-.453 2.272v6.7H-.11V5.253h2.944v3.534c.43-.987.883-2.065 1.675-2.891Zm6.905-.184c1.155-.826 2.695-.918 4.03-.826 1.065.092 2.242.367 3.125 1.079.816.642 1.336 1.72 1.517 2.73.181.642.181 1.262.181 1.996v8.168h-2.943v-2.27c-.272.55-.634 1.17-1.064 1.537-.815.643-1.789.987-2.763.987-1.245.092-2.604-.184-3.577-.918-.815-.55-1.336-1.537-1.517-2.547-.09-.826 0-1.72.453-2.547.362-.642.905-1.078 1.517-1.445.634-.367 1.426-.55 2.15-.734 1.246-.276 2.514-.276 3.669-.643.453-.092.906-.367 1.064-.734a1.52 1.52 0 0 0-.181-1.63c-.362-.458-.906-.642-1.427-.733a3.402 3.402 0 0 0-2.332.275c-.724.367-1.155 1.078-1.336 1.904-.815-.367-1.698-.642-2.513-.917.226-1.01.95-2.088 1.947-2.73Zm5.185 6.08c-.634.46-1.426.643-2.241.827-.725.091-1.336.275-1.97.642-.453.275-.906.734-.974 1.354-.09.642 0 1.262.363 1.812.362.46.815.643 1.335.735.906.183 1.97 0 2.695-.643.724-.55 1.155-1.354 1.336-2.271.272-1.079.18-2.272.18-3.442-.112.344-.384.711-.724.986Zm11.186-6.172c.974-.826 2.332-.917 3.487-.642.974.184 1.88.918 2.332 1.813.272.367.362.826.544 1.262.271-.987.815-1.905 1.607-2.547.906-.643 2.151-.734 3.215-.55 1.065.183 2.061.733 2.695 1.628.543.734.815 1.63.906 2.547.09.459 0 .918 0 1.445v8.33h-2.944V10.83c0-.918-.09-1.813-.634-2.547-.362-.55-.974-.826-1.608-.826-.815-.092-1.607.184-2.15.826-.725.918-.816 2.088-.906 3.166v7.434h-2.944V10.99c0-.826-.09-1.629-.362-2.363-.272-.55-.725-.986-1.245-1.078-.816-.184-1.699-.092-2.333.367-.543.459-.815 1.078-.973 1.72a6.913 6.913 0 0 0-.272 1.905v7.342h-2.944V5.277h2.944v3.075c.226-1.101.68-2.088 1.585-2.73Zm22.62 0c.906-.642 2.151-.826 3.215-.734 1.246.092 2.514.734 3.397 1.63.973.986 1.607 2.27 1.88 3.625.27 1.353.27 2.73-.092 3.992-.271 1.262-.905 2.547-1.879 3.533a5.755 5.755 0 0 1-3.487 1.538c-1.155.091-2.423-.092-3.306-.918-.724-.55-1.245-1.446-1.517-2.363V24h-3.124V5.14h3.124v2.73c.363-.803.906-1.698 1.79-2.249Zm1.087 1.813c-.362.092-.725.184-1.064.459-.816.459-1.427 1.354-1.699 2.271-.362 1.079-.362 2.272-.09 3.442.181 1.079.815 2.088 1.698 2.639.906.55 1.97.642 2.944.367.973-.275 1.789-.987 2.241-1.904.634-1.17.725-2.547.544-3.81-.181-1.078-.725-2.18-1.608-2.89a4.185 4.185 0 0 0-2.966-.574Zm27.534 10.44a19.363 19.363 0 0 0 2.603-2.18h4.823l3.034 3.075c-.633.091-1.335 0-1.97 0h-9.849c.385-.276.928-.551 1.359-.895Z"></path></g></g></g><defs><clipPath id="svg-1279429374_3244_a"><path fill="#fff" transform="translate(.36)" d="M0 0h90.79v24H0z"></path></clipPath><clipPath id="svg-1279429374_3244_b"><path fill="#fff" transform="translate(-.64)" d="M0 0h90.79v24H0z"></path></clipPath><clipPath id="svg-1279429374_3244_c"><path fill="#fff" transform="translate(-.64)" d="M0 0h90.79v24H0z"></path></clipPath></defs></svg>