<svg xmlns="http://www.w3.org/2000/svg"  xmlns:xlink="http://www.w3.org/1999/xlink"  width="93" height="24" fill="none" id="svg993691360_4785"><g clip-path="url(#svg993691360_4785_a)"><g clip-path="url(#svg993691360_4785_b)"><g clip-path="url(#svg993691360_4785_c)"><g clip-path="url(#svg993691360_4785_d)"><path d="M90.694 17.494c-.798 0-1.427-.215-1.887-.663-.46-.448-.675-1.05-.675-1.821v-4.8h-1.443V8.42h1.443l.26-2.393h1.703v2.392h2.21v1.806h-2.21v4.522a.95.95 0 0 0 .261.664.856.856 0 0 0 .675.278h1.289v1.805h-1.626Zm-8.669.17c-1.074 0-1.933-.262-2.577-.771a3.514 3.514 0 0 1-1.258-2.053h2.133c.092.309.306.57.583.74.337.201.736.294 1.12.278 1.135 0 1.703-.324 1.703-.94 0-.31-.185-.541-.537-.71a5.394 5.394 0 0 0-1.29-.387c-.505-.092-1.012-.231-1.534-.37a2.703 2.703 0 0 1-1.303-.88c-.353-.432-.537-.988-.537-1.682a2.392 2.392 0 0 1 .905-1.899c.598-.509 1.442-.756 2.5-.756 1.074 0 1.918.247 2.547.726a3.237 3.237 0 0 1 1.212 1.944H83.56c-.23-.57-.767-.864-1.611-.864-.905 0-1.366.293-1.366.864 0 .14.031.263.108.37a.742.742 0 0 0 .276.263c.291.17.614.293.951.34a11.492 11.492 0 0 1 2.516.74c.399.186.737.479.967.85.276.431.399.94.383 1.45a2.25 2.25 0 0 1-.245 1.096c-.169.34-.414.648-.721.864-.63.525-1.565.787-2.793.787Zm-6.336-8.52c-.66-.586-1.58-.894-2.761-.894-.936 0-1.734.262-2.378.771a3.532 3.532 0 0 0-1.258 1.976h2.01c.107-.293.29-.556.552-.726.307-.216.69-.324 1.058-.308.553 0 .982.139 1.304.432.17.154.292.34.369.54.076.2.122.432.107.648v.432h-2.301c-1.059 0-1.887.263-2.501.803a2.479 2.479 0 0 0-.675.91 2.77 2.77 0 0 0-.23 1.112c-.016.386.061.756.2 1.111.137.355.367.664.644.926.552.54 1.304.803 2.224.803a3.385 3.385 0 0 0 1.642-.386c.414-.2.752-.51.997-.895h.077l.168 1.126h1.703v-5.91c.031-1.05-.306-1.868-.95-2.47Zm-.966 4.847c.015.262-.031.54-.138.787a1.786 1.786 0 0 1-.46.648c-.4.355-.936.525-1.627.525-.49 0-.874-.108-1.135-.34a1.027 1.027 0 0 1-.292-.385 1.023 1.023 0 0 1-.092-.479c0-.802.522-1.204 1.534-1.204h2.21v.448ZM63.89 17.68c-1.288 0-2.332-.417-3.099-1.25-.767-.834-1.166-1.991-1.166-3.458 0-1.466.384-2.623 1.15-3.457.768-.833 1.811-1.25 3.1-1.25 1.059 0 1.933.278 2.623.849a4.02 4.02 0 0 1 1.381 2.145h-1.948a2.153 2.153 0 0 0-.844-.895 2.19 2.19 0 0 0-1.197-.293 1.895 1.895 0 0 0-.92.185 2.122 2.122 0 0 0-.752.571c-.43.51-.629 1.22-.629 2.145 0 .926.215 1.636.629 2.146.2.247.46.447.752.586.291.14.613.2.92.185.414.016.829-.092 1.197-.293a2.15 2.15 0 0 0 .844-.895h1.948a4.02 4.02 0 0 1-1.38 2.145c-.676.556-1.55.834-2.609.834Zm-11.506 3.256 1.365-3.426L50.1 8.435h2.132l2.47 6.42h.077l2.47-6.42h2.133l-4.94 12.517h-2.056v-.016ZM48.242 9.145c-.66-.587-1.58-.895-2.761-.895-.936 0-1.734.246-2.378.771a3.532 3.532 0 0 0-1.258 1.976h2.01c.107-.293.291-.556.552-.726.307-.216.69-.324 1.059-.308.552 0 .997.139 1.304.432.168.154.291.34.368.54.077.2.123.432.107.648v.432h-2.301c-1.059 0-1.887.263-2.5.803a2.477 2.477 0 0 0-.676.91c-.153.356-.23.726-.23 1.112-.015.386.061.756.2 1.111.138.355.368.664.644.926.552.54 1.304.803 2.224.803a3.386 3.386 0 0 0 1.642-.386c.414-.2.752-.51.997-.895h.077l.169 1.126h1.703v-5.91c.03-1.05-.292-1.868-.952-2.47Zm-.966 4.846c.015.262-.03.54-.138.787a1.786 1.786 0 0 1-.46.648c-.4.355-.936.525-1.627.525-.49 0-.874-.108-1.135-.34a1.029 1.029 0 0 1-.291-.385 1.024 1.024 0 0 1-.093-.479c0-.802.522-1.188 1.535-1.204h2.209v.448Zm-10.08-1.019c.307-.077.599-.2.875-.34.322-.184.629-.385.905-.632a2.81 2.81 0 0 0 .752-1.127 3.92 3.92 0 0 0 .276-1.574c0-1.142-.368-2.053-1.09-2.747-.72-.695-1.672-1.034-2.822-1.034h-4.94V17.51h2.132v-4.445h1.61l3.07 4.445h2.377l-3.145-4.538Zm-3.912-1.805V7.4h2.639c.598 0 1.074.17 1.427.494.352.324.521.787.521 1.389 0 .586-.184 1.05-.537 1.389a1.96 1.96 0 0 1-1.411.494h-2.639Z" fill="#000" fill-opacity=".4"></path></g></g><g clip-path="url(#svg993691360_4785_e)"><g clip-path="url(#svg993691360_4785_f)"><path d="M6.677 15.48v2.5l-5.675-5.988 1.182-1.25 4.493 4.738Zm2.364 2.516H6.677L12.352 24l1.182-1.25-4.493-4.754Zm13.465-4.754 1.181-1.25L12.352 0l-1.181 1.25 4.493 4.754H12.95L9.814 2.7 8.632 3.95l1.94 2.053H9.216v9.307h8.796v-1.436l1.94 2.053 1.182-1.25-3.122-3.303v-2.87l4.494 4.737ZM7.26 5.372l-1.182 1.25 1.27 1.342 1.181-1.25L7.26 5.37ZM17.34 16.02l-1.181 1.25 1.269 1.342 1.181-1.25-1.269-1.342ZM4.722 8.057l-1.181 1.25 3.136 3.318v-2.5L4.722 8.057Zm9.395 9.94h-2.363l3.136 3.317 1.182-1.25-1.955-2.068Z" fill="#000" fill-opacity=".4"></path></g></g></g></g><defs><clipPath id="svg993691360_4785_a"><path fill="#fff" transform="translate(.15)" d="M0 0h92.63v24H0z"></path></clipPath><clipPath id="svg993691360_4785_b"><path fill="#fff" transform="translate(.15)" d="M0 0h92.63v24H0z"></path></clipPath><clipPath id="svg993691360_4785_c"><path fill="#fff" transform="translate(31.15 5)" d="M0 0h61.63v16H0z"></path></clipPath><clipPath id="svg993691360_4785_d"><path fill="#fff" transform="translate(31.15 5)" d="M0 0h61.63v16H0z"></path></clipPath><clipPath id="svg993691360_4785_e"><path fill="#fff" transform="translate(.15)" d="M0 0h23.63v24H0z"></path></clipPath><clipPath id="svg993691360_4785_f"><path fill="#fff" transform="translate(.15)" d="M0 0h23.63v24H0z"></path></clipPath></defs></svg>