<svg xmlns="http://www.w3.org/2000/svg"  xmlns:xlink="http://www.w3.org/1999/xlink"  width="102" height="24" fill="none" id="svg699667276_6711"><g clip-path="url(#svg699667276_6711_a)"><g clip-path="url(#svg699667276_6711_b)"><g clip-path="url(#svg699667276_6711_c)"><g clip-path="url(#svg699667276_6711_d)"><path fill-rule="evenodd" clip-rule="evenodd" d="M20.269.41C18.978 0 17.802 0 15.427 0H8.29C5.927 0 4.74 0 3.471.399a4.87 4.87 0 0 0-1.833 1.184A5.123 5.123 0 0 0 .474 3.447C.07 4.748.07 5.956.07 8.36v7.257c0 2.427 0 3.611.392 4.913a4.974 4.974 0 0 0 1.164 1.864 5.014 5.014 0 0 0 1.834 1.184c1.28.41 2.467.41 4.83.41h7.148c2.375 0 3.551 0 4.831-.41a4.869 4.869 0 0 0 1.833-1.184 5.12 5.12 0 0 0 1.165-1.864c.403-1.302.403-2.51.403-4.913V8.371c0-2.415 0-3.61-.404-4.912a4.972 4.972 0 0 0-1.164-1.864A5.016 5.016 0 0 0 20.27.41Zm-4.634 8.641a4.862 4.862 0 0 0-3.171-1.184c-.957 0-1.914.317-1.925 1.196 0 .806.84 1.123 1.88 1.515l.333.127c2.075.715 3.782 1.582 3.782 3.646 0 2.24-1.707 3.775-4.508 3.95l-.254 1.209a.507.507 0 0 1-.173.28.469.469 0 0 1-.3.107H9.537a.447.447 0 0 1-.208-.047.61.61 0 0 1-.161-.141.36.36 0 0 1-.093-.188.649.649 0 0 1 0-.21l.277-1.267a6.332 6.332 0 0 1-2.825-1.571.357.357 0 0 1-.103-.152.54.54 0 0 1 0-.375.447.447 0 0 1 .104-.153l.98-.973a.458.458 0 0 1 .334-.14c.127 0 .242.046.334.14a4.682 4.682 0 0 0 3.332 1.325c1.28 0 2.145-.551 2.145-1.419 0-.79-.698-1.05-2.027-1.545l-.475-.178c-1.73-.634-3.367-1.525-3.367-3.612 0-2.415 1.983-3.587 4.324-3.705l.242-1.219a.603.603 0 0 1 .173-.27.469.469 0 0 1 .3-.105h1.752c.069 0 .138.012.207.047.058.023.116.07.162.129.046.058.08.117.092.187a.679.679 0 0 1 0 .211l-.277 1.372a7.108 7.108 0 0 1 2.433 1.384.38.38 0 0 1 .115.152c.023.059.046.117.046.188a.495.495 0 0 1-.138.352l-.91.926a.509.509 0 0 1-.335.14.497.497 0 0 1-.335-.129Z" fill="#000" fill-opacity=".4"></path></g></g><g clip-path="url(#svg699667276_6711_e)"><g clip-path="url(#svg699667276_6711_f)" fill="#000" fill-opacity=".4"><path d="M36.518 9.03a.48.48 0 0 0 .315-.052l1.084-.548a.426.426 0 0 0 .129-.114.39.39 0 0 0 .07-.32.606.606 0 0 0-.082-.145 5.569 5.569 0 0 0-2.053-1.542 6.282 6.282 0 0 0-2.623-.507c-3.487 0-5.878 2.245-5.878 5.556 0 3.31 2.39 5.586 5.924 5.586a6.117 6.117 0 0 0 2.66-.538 5.273 5.273 0 0 0 2.028-1.614.395.395 0 0 0 .07-.32.26.26 0 0 0-.081-.156.477.477 0 0 0-.152-.103l-1.05-.538a.472.472 0 0 0-.314-.041.4.4 0 0 0-.269.155 3.284 3.284 0 0 1-1.26 1.014 3.785 3.785 0 0 1-1.655.34c-2.216 0-3.592-1.582-3.592-3.796 0-2.214 1.364-3.765 3.569-3.765a3.67 3.67 0 0 1 1.632.32 3.37 3.37 0 0 1 1.26.973.43.43 0 0 0 .268.155Z"></path><path fill-rule="evenodd" clip-rule="evenodd" d="M44.553 16.344v-.455c-.548.63-1.318 1.024-2.589 1.034-1.83 0-3.102-.89-3.102-2.452 0-1.934 1.96-2.276 3.16-2.42l.28-.031c1.166-.145 2.111-.27 2.111-.963 0-.662-.863-.838-1.598-.838-.84.01-1.667.197-2.414.539a.417.417 0 0 1-.163.04c-.058 0-.117 0-.175-.02-.058-.01-.105-.041-.152-.072a.288.288 0 0 1-.104-.124l-.374-.704a.36.36 0 0 1-.023-.29.416.416 0 0 1 .21-.227 7.956 7.956 0 0 1 3.394-.755c2.11 0 3.591.765 3.591 2.617v5.12a.368.368 0 0 1-.034.146c-.024.041-.047.082-.094.124a.43.43 0 0 1-.14.083.413.413 0 0 1-.163.03h-1.155a.341.341 0 0 1-.174-.02.424.424 0 0 1-.152-.083.289.289 0 0 1-.105-.124.377.377 0 0 1-.035-.155Zm-1.709-3.11-.099.017c-.081.01-.174.03-.268.051-.793.125-1.458.321-1.458 1.087 0 .703.572 1.034 1.412 1.034 1.037 0 2.005-.517 2.005-1.707v-.91c-.344.227-.932.322-1.592.429Z"></path><path d="M48.506 14.71a.467.467 0 0 1 .292-.135.46.46 0 0 1 .315.083 4.43 4.43 0 0 0 2.565.734c.957 0 1.656-.269 1.656-.93 0-.601-.641-.725-2.204-.963-1.656-.248-3.242-.735-3.242-2.41 0-1.749 1.703-2.483 3.639-2.483a5.887 5.887 0 0 1 3.37.982.43.43 0 0 1 .117.125l.009.019c.02.043.037.082.037.136 0 .052 0 .103-.023.155a.361.361 0 0 1-.093.135l-.548.579a.466.466 0 0 1-.292.134.542.542 0 0 1-.315-.072 4.19 4.19 0 0 0-2.344-.662c-.816 0-1.528.207-1.528.786 0 .603.915.743 1.871.89l.135.02c2.134.331 3.499.87 3.499 2.452 0 1.655-1.493 2.68-3.86 2.68-1.295.03-2.566-.331-3.592-1.035a.426.426 0 0 1-.117-.124.308.308 0 0 1-.046-.145c0-.052 0-.103.023-.155a.544.544 0 0 1 .082-.135l.594-.662Zm8.222 1.634V6.37a.375.375 0 0 1 .128-.28.497.497 0 0 1 .303-.113h1.272c.245 0 .443.176.443.393v3.404a3.352 3.352 0 0 1 1.201-.88 3.67 3.67 0 0 1 1.528-.29c1.877 0 2.985 1.19 2.985 2.887v4.852a.3.3 0 0 1-.035.145.374.374 0 0 1-.093.124.496.496 0 0 1-.303.114h-1.271a.482.482 0 0 1-.315-.114.378.378 0 0 1-.129-.28v-4.406c0-.849-.303-1.614-1.527-1.614-1.155 0-2.041.724-2.041 1.924v4.097a.378.378 0 0 1-.129.279.482.482 0 0 1-.314.114H57.16a.517.517 0 0 1-.175-.032.427.427 0 0 1-.14-.082c-.047-.041-.07-.083-.094-.124a.55.55 0 0 1-.023-.145Z"></path><path fill-rule="evenodd" clip-rule="evenodd" d="m78.618 16.468-.922-2.4h-4.63l-.92 2.4a.475.475 0 0 1-.164.197.432.432 0 0 1-.257.072h-1.492c-.07 0-.14-.01-.199-.041a.378.378 0 0 1-.163-.125.473.473 0 0 1-.07-.175.344.344 0 0 1 .023-.187l4.187-9.983a.42.42 0 0 1 .163-.176.472.472 0 0 1 .245-.062h2.041c.093 0 .187.031.257.073.07.041.128.114.163.186l4.151 9.973c.024.062.035.124.024.186a.354.354 0 0 1-.082.176.601.601 0 0 1-.163.124.508.508 0 0 1-.21.041h-1.574a.53.53 0 0 1-.257-.082.378.378 0 0 1-.151-.197ZM75.41 7.726l-1.784 4.666h3.499L75.41 7.726Zm8.805 1.449v.62a3.028 3.028 0 0 1 1.213-.9 3.584 3.584 0 0 1 1.551-.29c2.45 0 4.024 1.79 4.024 4.139 0 2.348-1.587 4.159-4.024 4.159a3.584 3.584 0 0 1-1.55-.29 3.065 3.065 0 0 1-1.214-.91v3.248c0 .217-.198.393-.443.393h-1.271c-.245 0-.443-.176-.443-.393V9.154c0-.217.198-.393.443-.393h1.271a.52.52 0 0 1 .175.031c.058.02.105.052.152.093.035.041.07.083.093.135a.712.712 0 0 1 .023.155Zm2.321 6.072c1.493 0 2.204-1.138 2.204-2.503 0-1.366-.723-2.473-2.204-2.473-1.481 0-2.31 1.097-2.31 2.473s.794 2.503 2.31 2.503Zm7.954-6.072v.62a3.028 3.028 0 0 1 1.212-.9 3.584 3.584 0 0 1 1.551-.29c2.45 0 4.024 1.79 4.024 4.139 0 2.348-1.575 4.159-4.024 4.159a3.584 3.584 0 0 1-1.55-.29 3.066 3.066 0 0 1-1.214-.91v3.248c0 .217-.198.393-.443.393h-1.27c-.246 0-.444-.176-.444-.393V9.154c0-.103.047-.207.128-.28a.482.482 0 0 1 .315-.113h1.271a.52.52 0 0 1 .175.031.45.45 0 0 1 .152.093c.035.041.07.083.093.135a.362.362 0 0 1 .023.155Zm2.32 6.072c1.493 0 2.204-1.138 2.204-2.503 0-1.366-.734-2.473-2.204-2.473-1.481 0-2.309 1.097-2.309 2.473s.793 2.503 2.31 2.503Z"></path></g></g></g></g><defs><clipPath id="svg699667276_6711_a"><path fill="#fff" transform="translate(.07)" d="M0 0h101.6v24H0z"></path></clipPath><clipPath id="svg699667276_6711_b"><path fill="#fff" transform="translate(.07)" d="M0 0h101.6v24H0z"></path></clipPath><clipPath id="svg699667276_6711_c"><path fill="#fff" transform="translate(.07)" d="M0 0h23.6v24H0z"></path></clipPath><clipPath id="svg699667276_6711_d"><path fill="#fff" transform="translate(.07)" d="M0 0h23.6v24H0z"></path></clipPath><clipPath id="svg699667276_6711_e"><path fill="#fff" transform="translate(27.07 5)" d="M0 0h74.6v15H0z"></path></clipPath><clipPath id="svg699667276_6711_f"><path fill="#fff" transform="translate(27.07 5)" d="M0 0h74.6v15H0z"></path></clipPath></defs></svg>