<svg xmlns="http://www.w3.org/2000/svg"  xmlns:xlink="http://www.w3.org/1999/xlink"  width="108" height="24" fill="none" id="svg-136321714_3478"><g clip-path="url(#svg-136321714_3478_a)"><g clip-path="url(#svg-136321714_3478_b)"><g clip-path="url(#svg-136321714_3478_c)"><g clip-path="url(#svg-136321714_3478_d)"><path d="M44.91 18.896H30.334v-1.663c1.797-.306 2.15-.945 2.15-1.56V5.258c0-1.176-.353-1.663-2.15-1.79V1.805h9.162v1.663c-1.798.127-2.152.614-2.152 1.79v11.02c0 .613.177 1.05 1.695 1.05h1.646c.934 0 2.048-.462 2.833-2.97h1.644l-.252 4.538Zm1.316-6.269c0-4.144 2.961-7.215 7.16-7.215 4.43 0 6.985 3.02 6.985 6.703 0 4.122-3.01 7.141-7.135 7.141-4.504 0-7.01-2.943-7.01-6.629Zm9.389.948c0-4.068-1.393-6.5-2.759-6.5-1.29 0-1.82 1.638-1.82 3.992 0 4.146 1.416 6.526 2.755 6.526 1.269 0 1.824-1.613 1.824-4.018Zm6.325-.948c0-4.144 2.963-7.215 7.162-7.215 4.43 0 6.985 3.02 6.985 6.703 0 4.122-3.01 7.141-7.137 7.141-4.503 0-7.01-2.943-7.01-6.629Zm9.39.948c0-4.068-1.392-6.5-2.758-6.5-1.291 0-1.824 1.638-1.824 3.992 0 4.146 1.42 6.526 2.758 6.526 1.267 0 1.824-1.613 1.824-4.018Zm20.377-1.663c0 4.477-2.68 7.347-6.553 7.347a5.644 5.644 0 0 1-2.279-.436v1.893c0 .948.38 1.332 2.102 1.587v1.673h-8.276v-1.663c1.316-.306 1.469-.64 1.469-1.587V9.46c0-.666-.228-1.05-1.064-1.432l-.405-.179V6.517l5.162-1.1h1.012v1.64a3.466 3.466 0 0 1 3.013-1.64c4.022-.005 5.82 3.13 5.82 6.495Zm-4.858.921c0-2.662-.726-4.964-2.48-4.964-.76 0-.886-.052-1.494.41v5.141c0 3.047.485 3.943 1.797 3.943 1.216 0 2.177-1.51 2.177-4.53Zm17.089-5.912-2.328 3.225c-1.114-2.253-2.18-3.198-3.44-3.198-.762 0-1.748.46-1.748 1.254 0 2.694 7.92.945 7.77 6.884-.077 2.147-2.127 4.163-5.67 4.163-3.087 0-5.667-1.562-6.297-2.126l2.735-2.89c1.519 2.405 2.758 3.48 3.972 3.48.632 0 1.746-.28 1.772-1.535 0-2.892-7.82-.563-7.796-6.367 0-2.738 2.253-4.409 5.847-4.409 2.829.01 4.652 1.007 5.183 1.519Z" fill="#000" fill-opacity=".4"></path></g></g><g clip-path="url(#svg-136321714_3478_e)"><g clip-path="url(#svg-136321714_3478_f)"><path d="M13.392 0H10.29C4.794.007.34 4.638.335 10.352c.006 5.713 4.46 10.342 9.956 10.349h3.112c5.497-.005 9.952-4.635 9.96-10.349C23.356 4.632 18.893-.001 13.391 0ZM1.567 10.352c0-5.005 3.903-9.061 8.717-9.061.487 0 .974.041 1.454.125 4.2.722 7.276 4.505 7.261 8.931-.005 2.841-1.977 5.265-4.672 5.74 1.763-1.338 2.805-3.471 2.803-5.74.006-3.247-2.107-6.084-5.133-6.891a6.569 6.569 0 0 0-1.713-.226c-3.775.012-6.828 3.194-6.832 7.117-.01 3.555 1.741 6.864 4.634 8.76-3.83-1.045-6.503-4.639-6.512-8.755h-.007Zm10.27-5.591c2.397.717 4.047 2.998 4.045 5.591 0 2.592-1.65 4.871-4.046 5.588-2.396-.717-4.045-2.996-4.045-5.588-.002-2.593 1.648-4.874 4.045-5.591Zm1.555 14.647h-.036a8.604 8.604 0 0 1-1.414-.125c-4.09-.705-7.128-4.32-7.25-8.627v-.304c.002-2.842 1.976-5.267 4.67-5.741C7.6 5.949 6.557 8.082 6.557 10.352c-.003 3.246 2.11 6.082 5.135 6.889a6.479 6.479 0 0 0 1.712.225c3.779-.004 6.841-3.186 6.847-7.114.01-3.555-1.74-6.865-4.635-8.76 3.83 1.047 6.5 4.644 6.5 8.76 0 2.403-.92 4.708-2.557 6.406-1.636 1.699-3.855 2.652-6.166 2.65Z" fill="#000" fill-opacity=".4"></path></g></g></g></g><defs><clipPath id="svg-136321714_3478_a"><path fill="#fff" transform="translate(.67)" d="M0 0h107v24H0z"></path></clipPath><clipPath id="svg-136321714_3478_b"><path fill="#fff" transform="translate(.67)" d="M0 0h107v24H0z"></path></clipPath><clipPath id="svg-136321714_3478_c"><path fill="#fff" transform="translate(29.67 1)" d="M0 0h75v23H0z"></path></clipPath><clipPath id="svg-136321714_3478_d"><path fill="#fff" transform="translate(29.67 1)" d="M0 0h75v23H0z"></path></clipPath><clipPath id="svg-136321714_3478_e"><path fill="#fff" transform="translate(-.33)" d="M0 0h24v21H0z"></path></clipPath><clipPath id="svg-136321714_3478_f"><path fill="#fff" transform="translate(-.33)" d="M0 0h24v21H0z"></path></clipPath></defs></svg>